<?xml version="1.0" standalone="no"?>
<!DOCTYPE svg PUBLIC "-//W3C//DTD SVG 20010904//EN"
 "http://www.w3.org/TR/2001/REC-SVG-20010904/DTD/svg10.dtd">
<svg version="1.0" xmlns="http://www.w3.org/2000/svg"
 width="512.000000pt" height="512.000000pt" viewBox="0 0 512.000000 512.000000"
 preserveAspectRatio="xMidYMid meet">

<g transform="translate(0.000000,512.000000) scale(0.100000,-0.100000)"
fill="#000000" stroke="none">
<path d="M2398 5109 c-614 -35 -1202 -302 -1643 -743 -449 -449 -704 -1016
-744 -1649 -52 -831 305 -1635 959 -2157 406 -324 920 -520 1437 -549 499 -27
971 79 1388 312 868 485 1376 1410 1314 2394 -55 879 -541 1647 -1317 2082
-303 170 -692 286 -1017 306 -204 12 -243 12 -377 4z m-350 -1077 c43 -31 65
-77 66 -135 0 -51 -19 -85 -68 -121 -26 -20 -42 -21 -351 -24 l-324 -3 -3
-324 c-3 -309 -4 -325 -24 -351 -36 -49 -70 -68 -121 -68 -58 1 -104 23 -135
66 -23 33 -23 36 -26 366 -2 275 0 343 12 393 29 111 100 184 209 214 41 11
123 14 392 12 338 -2 340 -2 373 -25z m1786 13 c112 -29 183 -101 212 -215 12
-49 14 -119 12 -392 -3 -330 -3 -333 -26 -366 -31 -43 -77 -65 -135 -66 -51 0
-85 19 -121 68 -20 26 -21 42 -24 352 l-3 324 -310 0 c-333 0 -351 2 -397 53
-32 34 -44 92 -31 142 12 44 66 101 101 108 13 2 167 5 343 6 257 1 332 -2
379 -14z m-1786 -762 c14 -10 35 -32 46 -47 21 -27 21 -37 21 -676 0 -639 0
-649 -21 -676 -39 -53 -71 -69 -134 -69 -68 0 -104 21 -133 76 -16 32 -17 80
-15 681 3 636 3 647 24 675 46 63 151 81 212 36z m582 9 c19 -9 45 -32 57 -51
l23 -34 0 -647 0 -647 -23 -34 c-60 -90 -194 -90 -254 0 l-23 34 0 647 0 647
23 34 c27 41 79 69 127 69 19 0 51 -8 70 -18z m618 -9 c15 -11 35 -35 44 -54
17 -31 18 -84 18 -667 0 -696 2 -678 -61 -723 -26 -19 -47 -24 -91 -24 -61 0
-94 17 -132 69 -21 27 -21 40 -24 629 -2 331 0 626 3 655 7 59 40 106 90 128
40 19 119 12 153 -13z m-1949 -1192 c14 -9 34 -30 45 -45 20 -26 21 -42 24
-351 l3 -324 324 -3 c309 -3 325 -4 351 -24 49 -36 68 -70 68 -121 -1 -58 -23
-104 -66 -135 -33 -23 -36 -23 -366 -26 -273 -2 -343 0 -392 12 -75 19 -133
58 -171 112 -53 77 -59 126 -59 470 0 171 3 325 6 342 19 96 153 150 233 93z
m2683 3 c14 -8 37 -28 50 -46 23 -33 23 -36 26 -366 2 -275 0 -343 -12 -393
-30 -114 -101 -185 -216 -215 -49 -12 -119 -14 -392 -12 -330 3 -333 3 -366
26 -44 32 -66 77 -65 136 1 52 19 84 67 120 26 20 42 21 352 24 l324 3 0 310
c0 333 2 351 53 398 45 41 116 47 179 15z"/>
</g>
</svg>
