<?xml version="1.0" standalone="no"?>
<!DOCTYPE svg PUBLIC "-//W3C//DTD SVG 20010904//EN"
 "http://www.w3.org/TR/2001/REC-SVG-20010904/DTD/svg10.dtd">
<svg version="1.0" xmlns="http://www.w3.org/2000/svg"
 width="500.000000pt" height="500.000000pt" viewBox="0 0 500.000000 500.000000"
 preserveAspectRatio="xMidYMid meet">

<g transform="translate(0.000000,500.000000) scale(0.100000,-0.100000)"
fill="#000000" stroke="none">
<path d="M2245 4718 c9 -55 37 -114 75 -160 36 -43 140 -98 185 -98 l32 0 17
-92 c10 -51 19 -103 22 -114 5 -19 0 -22 -58 -28 -95 -11 -270 -52 -383 -91
-277 -95 -544 -258 -747 -456 -75 -75 -89 -93 -103 -143 -14 -48 -15 -65 -4
-108 31 -132 183 -203 302 -142 16 9 72 56 125 106 547 510 1386 567 1999 135
107 -76 291 -255 365 -357 169 -231 269 -492 304 -792 49 -430 -95 -872 -398
-1218 -217 -248 -523 -424 -875 -502 -133 -30 -469 -32 -608 -4 -184 37 -346
99 -528 203 -96 54 -98 55 -166 51 -122 -7 -202 -84 -209 -203 -8 -120 47
-186 241 -292 479 -261 1076 -313 1591 -141 750 252 1286 911 1376 1693 13
115 13 354 0 470 -36 324 -149 635 -326 901 l-76 114 89 113 c220 278 213 266
213 347 0 61 -10 88 -52 135 -61 70 -165 95 -238 57 -19 -9 -110 -77 -203
-150 -92 -72 -169 -132 -172 -132 -2 0 -55 34 -117 76 -246 166 -534 278 -830
325 -90 14 -86 4 -60 143 l17 88 52 22 c91 37 137 77 171 148 17 34 34 80 38
101 l6 37 -537 0 -537 0 7 -42z"/>
<path d="M3444 3081 c-16 -4 -205 -125 -420 -268 -214 -143 -406 -270 -426
-282 -57 -34 -125 -116 -148 -179 -32 -83 -25 -215 14 -290 92 -180 302 -251
480 -163 33 16 77 47 97 68 37 39 560 867 579 917 41 108 -63 224 -176 197z"/>
<path d="M176 2917 c-100 -57 -101 -194 -1 -252 l42 -25 673 0 c660 0 675 0
716 21 45 21 84 81 84 129 0 48 -39 108 -84 129 -41 21 -56 21 -717 21 l-674
0 -39 -23z"/>
<path d="M897 2206 c-20 -8 -44 -20 -53 -27 -48 -40 -59 -134 -21 -190 45 -67
54 -69 420 -69 364 0 376 2 420 64 16 22 22 45 22 83 0 56 -18 90 -69 127 -26
20 -42 21 -354 23 -257 2 -335 0 -365 -11z"/>
<path d="M592 1490 c-97 -23 -141 -147 -83 -229 44 -61 41 -61 576 -61 538 0
532 -1 578 64 16 22 22 45 22 83 0 56 -18 90 -69 127 -27 20 -40 21 -509 23
-265 1 -497 -2 -515 -7z"/>
</g>
</svg>
