<?xml version="1.0" standalone="no"?>
<!DOCTYPE svg PUBLIC "-//W3C//DTD SVG 20010904//EN"
 "http://www.w3.org/TR/2001/REC-SVG-20010904/DTD/svg10.dtd">
<svg version="1.0" xmlns="http://www.w3.org/2000/svg"
 width="500.000000pt" height="500.000000pt" viewBox="0 0 500.000000 500.000000"
 preserveAspectRatio="xMidYMid meet">

<g transform="translate(0.000000,500.000000) scale(0.100000,-0.100000)"
fill="#000000" stroke="none">
<path d="M2130 4814 c-556 -66 -1010 -287 -1380 -670 -317 -329 -518 -729
-595 -1184 -22 -132 -30 -399 -16 -545 59 -605 356 -1159 820 -1527 340 -271
723 -427 1161 -473 170 -19 280 -19 450 0 493 52 949 263 1299 600 368 354
590 783 668 1285 36 236 15 667 -37 770 -61 120 -242 132 -317 20 -34 -52 -37
-96 -19 -228 9 -62 16 -179 16 -260 0 -1056 -922 -1901 -1978 -1814 -575 48
-1071 336 -1387 807 -314 468 -395 1063 -218 1594 197 591 689 1049 1290 1201
172 43 267 55 463 54 253 0 435 -33 649 -116 85 -33 112 -40 152 -36 174 17
231 248 84 344 -62 40 -341 123 -540 160 -87 16 -478 28 -565 18z"/>
<path d="M4025 4477 c-105 -50 -576 -584 -927 -1052 -213 -285 -548 -770 -682
-988 -49 -79 -60 -88 -70 -62 -3 9 -125 195 -270 414 -330 497 -340 506 -516
506 -84 0 -101 -3 -147 -28 -141 -73 -206 -193 -174 -315 8 -27 86 -154 204
-330 106 -158 298 -447 427 -642 129 -195 254 -374 278 -398 110 -111 273
-130 399 -47 54 36 61 45 247 342 539 859 1013 1496 1485 1998 143 153 172
202 172 296 0 77 -19 135 -66 199 -86 117 -239 163 -360 107z"/>
</g>
</svg>
